<?xml version="1.0" standalone="no"?>
<!DOCTYPE svg PUBLIC "-//W3C//DTD SVG 20010904//EN"
 "http://www.w3.org/TR/2001/REC-SVG-20010904/DTD/svg10.dtd">
<svg version="1.0" xmlns="http://www.w3.org/2000/svg"
 width="260.000000pt" height="260.000000pt" viewBox="0 0 260.000000 260.000000"
 preserveAspectRatio="xMidYMid meet">
<metadata>
Created by potrace 1.11, written by Peter Selinger 2001-2013
</metadata>
<g transform="translate(0.000000,260.000000) scale(0.100000,-0.100000)"
fill="#000000" stroke="none">
<path d="M1140 2323 c0 -6 -11 -9 -25 -8 -14 2 -25 0 -25 -5 0 -4 -18 -10 -40
-14 -22 -3 -56 -15 -75 -26 -19 -11 -37 -20 -40 -21 -31 -6 -45 -13 -45 -20 0
-5 -7 -9 -15 -9 -8 0 -15 -5 -15 -11 0 -5 -4 -7 -10 -4 -5 3 -10 1 -10 -5 0
-6 -4 -9 -9 -6 -5 3 -12 -1 -15 -10 -3 -8 -11 -12 -16 -9 -6 4 -9 2 -8 -4 2
-5 -19 -28 -46 -51 -26 -22 -44 -40 -40 -40 5 0 1 -5 -9 -11 -9 -6 -15 -14
-12 -19 3 -4 -1 -10 -8 -13 -6 -3 -21 -22 -32 -43 -11 -22 -23 -41 -26 -44
-11 -9 -39 -132 -32 -143 3 -6 1 -7 -5 -3 -7 4 -12 3 -12 -3 0 -5 6 -11 13
-14 9 -3 9 -7 -2 -20 -7 -10 -9 -17 -4 -17 5 0 10 -13 11 -30 3 -49 5 -60 11
-60 4 0 13 -20 20 -45 7 -24 19 -49 27 -56 8 -6 12 -15 9 -19 -2 -4 4 -18 15
-30 11 -13 20 -29 20 -35 0 -7 7 -16 16 -19 9 -4 14 -9 11 -12 -5 -6 7 -23 50
-72 13 -13 20 -28 17 -33 -3 -5 0 -9 6 -9 6 0 18 -7 26 -15 9 -8 13 -15 10
-15 -3 0 15 -21 39 -47 25 -26 42 -49 40 -51 -3 -3 4 -12 15 -19 11 -8 18 -19
15 -24 -4 -5 -2 -9 3 -9 5 0 20 -20 33 -45 13 -25 28 -45 33 -45 4 0 6 -7 2
-15 -3 -9 0 -15 9 -15 8 0 15 -9 15 -19 0 -11 7 -27 16 -35 8 -9 13 -20 10
-25 -3 -5 1 -14 9 -21 7 -6 11 -18 8 -26 -3 -8 0 -14 6 -14 6 0 11 -5 11 -11
0 -5 -4 -7 -10 -4 -5 3 -3 -9 6 -27 8 -18 19 -45 25 -60 6 -16 15 -28 21 -28
5 0 7 -3 4 -8 -7 -12 22 -45 33 -37 6 3 8 11 5 17 -4 7 -2 8 4 4 14 -9 14 -9
2 34 -6 19 -12 47 -15 61 l-5 27 99 -1 c82 -1 98 -4 97 -17 -1 -8 -5 -18 -9
-21 -4 -3 -10 -19 -12 -35 -2 -16 -4 -30 -6 -31 -2 -4 -6 -20 -8 -33 0 -5 -4
-10 -8 -10 -5 0 -7 32 -6 70 1 39 -1 68 -6 66 -4 -3 -7 -52 -6 -110 1 -100 0
-105 -22 -115 -17 -8 -23 -7 -23 2 0 9 -3 8 -9 -1 -7 -11 -10 -10 -15 3 -3 9
-4 21 0 26 3 5 0 9 -6 9 -6 0 -8 5 -4 11 10 17 11 120 1 126 -5 3 -4 9 3 13 9
6 10 12 1 26 -8 14 -11 15 -11 4 0 -13 -1 -13 -10 0 -5 8 -10 10 -10 4 0 -6 3
-14 7 -18 12 -12 12 -36 0 -36 -8 0 -8 -3 -2 -8 6 -4 11 -23 12 -42 0 -19 -1
-29 -4 -22 -4 10 -8 10 -19 1 -16 -13 -19 -49 -3 -49 5 0 7 -5 4 -10 -4 -6 -1
-18 7 -27 11 -14 9 -15 -19 -11 -18 2 -30 1 -27 -4 3 -4 1 -8 -5 -8 -5 0 -13
5 -16 10 -4 7 -13 6 -27 -1 -15 -8 -22 -8 -28 1 -5 7 -12 3 -23 -13 -9 -14
-13 -28 -10 -31 8 -8 11 -26 15 -78 2 -21 6 -38 11 -38 4 0 7 -7 7 -15 0 -8 5
-15 11 -15 5 0 8 -4 5 -8 -6 -10 61 -37 86 -36 10 1 15 -3 12 -7 -3 -5 36 -9
86 -9 54 0 89 4 85 9 -3 6 6 8 20 5 14 -2 25 0 25 6 0 5 3 9 8 8 17 -5 52 14
52 28 0 8 5 12 10 9 6 -3 10 3 10 14 0 12 4 21 8 21 4 0 7 24 7 52 -2 87 -5
99 -15 93 -5 -3 -10 -2 -10 3 0 5 -15 9 -34 8 -19 0 -32 -4 -29 -8 2 -5 0 -8
-6 -8 -5 0 -11 6 -14 13 -3 9 -7 9 -19 0 -12 -10 -18 -10 -31 0 -15 11 -14 15
2 49 11 20 16 40 13 43 -8 8 -10 45 -2 40 4 -3 6 9 4 25 -2 17 1 30 6 30 6 0
10 11 10 25 0 21 5 25 28 24 15 0 21 -3 15 -6 -16 -6 -17 -43 -2 -43 6 0 8 7
5 16 -3 8 -2 13 2 10 4 -2 12 7 19 20 8 18 8 22 0 17 -7 -4 -6 0 1 10 8 9 11
21 7 27 -3 5 -1 10 5 10 6 0 9 4 6 9 -3 5 4 21 16 37 13 15 16 24 9 19 -8 -4
0 13 17 38 18 25 32 50 32 56 0 6 5 11 11 11 5 0 7 5 4 10 -3 5 -2 10 2 10 5
0 17 16 27 35 11 19 24 35 29 35 6 0 8 2 5 5 -6 7 19 39 70 91 19 19 30 34 26
34 -5 0 6 13 23 29 18 16 29 32 26 35 -4 3 -2 6 3 6 5 0 20 18 34 39 13 22 28
37 34 34 5 -3 6 -1 3 4 -4 6 4 27 18 47 14 20 25 41 25 47 0 6 4 8 9 5 5 -4 8
2 7 11 -2 10 0 20 4 23 11 8 47 123 45 147 -1 12 2 20 7 17 4 -3 8 0 8 5 0 6
-3 11 -7 11 -5 0 -8 25 -9 54 0 30 -6 62 -14 70 -7 9 -9 16 -5 16 4 0 2 6 -4
13 -6 8 -8 17 -4 20 3 4 2 7 -3 7 -6 0 -16 16 -24 35 -8 19 -17 35 -20 35 -4
0 -15 16 -26 35 -10 19 -22 35 -26 35 -12 0 -56 48 -50 54 3 3 -2 6 -12 6 -9
0 -14 5 -11 10 3 6 -2 10 -12 10 -10 0 -24 9 -31 20 -7 11 -19 20 -28 20 -8 0
-12 4 -9 10 3 5 0 7 -8 4 -8 -3 -20 2 -27 11 -7 8 -17 15 -22 15 -5 0 -27 9
-50 20 -22 11 -44 17 -49 15 -4 -3 -9 -1 -11 4 -3 8 -36 17 -90 25 -10 1 -21
5 -24 9 -12 12 -26 8 -18 -5 6 -10 4 -10 -7 0 -16 15 -165 17 -174 2 -5 -8
-11 -7 -21 1 -8 6 -14 7 -14 2z m4 -1472 c4 -5 7 -21 8 -35 1 -14 6 -26 10
-26 9 0 5 -36 -5 -46 -4 -4 -7 0 -7 9 0 10 -4 17 -10 17 -5 0 -10 7 -10 16 0
9 -8 23 -17 31 -11 8 -12 11 -3 7 12 -7 13 -5 3 8 -7 8 -10 18 -6 21 9 10 31
8 37 -2z m76 -157 c0 -8 -19 -13 -24 -6 -3 5 1 9 9 9 8 0 15 -2 15 -3z m107 0
c-3 -3 -12 -4 -19 -1 -8 3 -5 6 6 6 11 1 17 -2 13 -5z"/>
<path d="M1368 763 c-10 -29 -12 -43 -4 -40 6 2 12 13 14 25 2 12 7 22 12 22
14 0 19 28 6 33 -7 3 -18 -13 -28 -40z"/>
</g>
</svg>
